<svg width="791" height="255" viewBox="0 0 791 255" fill="none" xmlns="http://www.w3.org/2000/svg">
<path d="M97.8048 24.9554C101.61 24.9819 105.412 25.0083 109.043 25.0083H145.978C149.608 25.0083 153.411 24.9819 157.216 24.9554C167.459 24.8841 177.718 24.8127 184.661 25.2573C209.937 26.876 227.369 42.1909 229.61 68.2139C230.141 77.565 230.128 88.83 230.113 102.115V102.119C230.111 104.399 230.108 106.739 230.108 109.138V146.074C230.108 148.473 230.111 150.813 230.113 153.093C230.128 166.38 230.141 177.646 229.61 186.998C227.369 213.021 209.937 228.336 184.661 229.955C177.718 230.399 167.459 230.328 157.216 230.257C153.411 230.23 149.608 230.204 145.978 230.204H109.043C105.412 230.204 101.61 230.23 97.8048 230.257C87.5612 230.328 77.3027 230.399 70.3593 229.955C45.0835 228.336 27.6518 213.021 25.4106 186.998C24.8792 177.647 24.8921 166.382 24.9072 153.097V153.093C24.9098 150.813 24.9125 148.473 24.9125 146.074V109.138C24.9125 106.739 24.9098 104.399 24.9072 102.119V102.115C24.8921 88.83 24.8792 77.565 25.4106 68.2139C27.6518 42.1909 45.0835 26.876 70.3593 25.2573C77.3027 24.8127 87.5612 24.8841 97.8048 24.9554Z" fill="url(#paint0_linear_1_2023)"/>
<g filter="url(#filter0_dddddd_1_2023)">
<path d="M58.2715 98.1152C58.2715 92.889 62.5082 88.6523 67.7344 88.6523H133.975C147.178 88.6523 157.881 99.3555 157.881 112.559V156.636C157.881 161.862 153.644 166.099 148.418 166.099H82.1777C68.9747 166.099 58.2715 155.395 58.2715 142.192V98.1152Z" fill="url(#paint1_linear_1_2023)"/>
<path d="M67.7344 89.7729H133.975C146.559 89.7729 156.76 99.9744 156.76 112.559V156.636C156.76 161.243 153.025 164.978 148.418 164.978H82.1777C69.5936 164.978 59.3921 154.777 59.3921 142.192V98.1152C59.3921 93.5079 63.1271 89.7729 67.7344 89.7729Z" stroke="url(#paint2_linear_1_2023)" stroke-width="2.24121"/>
</g>
<g filter="url(#filter1_dddddd_1_2023)">
<path d="M163.857 116.072C163.857 112.851 165.243 109.785 167.662 107.658L186.64 90.9628C190.662 87.4248 196.978 90.2806 196.978 95.6371V159.304C196.978 164.61 190.765 167.484 186.721 164.048L169.3 149.247C165.847 146.313 163.857 142.011 163.857 137.481V116.072Z" fill="url(#paint3_linear_1_2023)"/>
<path d="M168.402 108.499L187.38 91.8042C190.678 88.903 195.857 91.2447 195.857 95.6371V159.304C195.857 163.655 190.762 166.011 187.447 163.194L170.026 148.393C166.824 145.672 164.978 141.683 164.978 137.481V116.072C164.978 113.173 166.225 110.414 168.402 108.499Z" stroke="url(#paint4_linear_1_2023)" stroke-width="2.24121"/>
</g>
<path d="M293.612 73.8295L315.626 111.912H316.568L338.817 73.8295H371.425L335.05 134.102L372.602 194.375H339.17L316.568 155.881H315.626L293.024 194.375H259.827L297.203 134.102L260.768 73.8295H293.612ZM493.472 134.102C493.472 147.365 490.921 158.608 485.82 167.829C480.719 177.051 473.812 184.055 465.101 188.842C456.429 193.629 446.697 196.023 435.906 196.023C425.076 196.023 415.325 193.61 406.653 188.783C397.981 183.957 391.094 176.952 385.993 167.77C380.931 158.549 378.4 147.326 378.4 134.102C378.4 120.839 380.931 109.597 385.993 100.375C391.094 91.154 397.981 84.1497 406.653 79.3624C415.325 74.5751 425.076 72.1815 435.906 72.1815C446.697 72.1815 456.429 74.5751 465.101 79.3624C473.812 84.1497 480.719 91.154 485.82 100.375C490.921 109.597 493.472 120.839 493.472 134.102ZM463.688 134.102C463.688 126.254 462.57 119.623 460.333 114.208C458.136 108.792 454.958 104.692 450.798 101.906C446.678 99.1198 441.714 97.7267 435.906 97.7267C430.138 97.7267 425.174 99.1198 421.015 101.906C416.855 104.692 413.657 108.792 411.421 114.208C409.223 119.623 408.125 126.254 408.125 134.102C408.125 141.95 409.223 148.582 411.421 153.997C413.657 159.412 416.855 163.513 421.015 166.299C425.174 169.085 430.138 170.478 435.906 170.478C441.714 170.478 446.678 169.085 450.798 166.299C454.958 163.513 458.136 159.412 460.333 153.997C462.57 148.582 463.688 141.95 463.688 134.102ZM624.259 134.102C624.259 147.365 621.708 158.608 616.607 167.829C611.506 177.051 604.599 184.055 595.888 188.842C587.216 193.629 577.485 196.023 566.694 196.023C555.863 196.023 546.112 193.61 537.44 188.783C528.768 183.957 521.881 176.952 516.78 167.77C511.718 158.549 509.187 147.326 509.187 134.102C509.187 120.839 511.718 109.597 516.78 100.375C521.881 91.154 528.768 84.1497 537.44 79.3624C546.112 74.5751 555.863 72.1815 566.694 72.1815C577.485 72.1815 587.216 74.5751 595.888 79.3624C604.599 84.1497 611.506 91.154 616.607 100.375C621.708 109.597 624.259 120.839 624.259 134.102ZM594.476 134.102C594.476 126.254 593.357 119.623 591.121 114.208C588.923 108.792 585.745 104.692 581.585 101.906C577.465 99.1198 572.501 97.7267 566.694 97.7267C560.925 97.7267 555.961 99.1198 551.802 101.906C547.643 104.692 544.444 108.792 542.208 114.208C540.01 119.623 538.912 126.254 538.912 134.102C538.912 141.95 540.01 148.582 542.208 153.997C544.444 159.412 547.643 163.513 551.802 166.299C555.961 169.085 560.925 170.478 566.694 170.478C572.501 170.478 577.465 169.085 581.585 166.299C585.745 163.513 588.923 159.412 591.121 153.997C593.357 148.582 594.476 141.95 594.476 134.102ZM641.269 73.8295H677.351L707.958 148.464H709.37L739.978 73.8295H776.059V194.375H747.688V120.329H746.688L717.729 193.61H699.6L670.64 119.917H669.64V194.375H641.269V73.8295Z" fill="white"/>
<defs>
<filter id="filter0_dddddd_1_2023" x="40.3418" y="81.9287" width="135.469" height="113.306" filterUnits="userSpaceOnUse" color-interpolation-filters="sRGB">
<feFlood flood-opacity="0" result="BackgroundImageFix"/>
<feColorMatrix in="SourceAlpha" type="matrix" values="0 0 0 0 0 0 0 0 0 0 0 0 0 0 0 0 0 0 127 0" result="hardAlpha"/>
<feOffset dy="0.615013"/>
<feGaussianBlur stdDeviation="0.226553"/>
<feColorMatrix type="matrix" values="0 0 0 0 0.0509804 0 0 0 0 0.121569 0 0 0 0 0.396078 0 0 0 0.189957 0"/>
<feBlend mode="multiply" in2="BackgroundImageFix" result="effect1_dropShadow_1_2023"/>
<feColorMatrix in="SourceAlpha" type="matrix" values="0 0 0 0 0 0 0 0 0 0 0 0 0 0 0 0 0 0 127 0" result="hardAlpha"/>
<feOffset dy="1.20664"/>
<feGaussianBlur stdDeviation="0.503869"/>
<feColorMatrix type="matrix" values="0 0 0 0 0.0509804 0 0 0 0 0.121569 0 0 0 0 0.396078 0 0 0 0.368551 0"/>
<feBlend mode="multiply" in2="effect1_dropShadow_1_2023" result="effect2_dropShadow_1_2023"/>
<feColorMatrix in="SourceAlpha" type="matrix" values="0 0 0 0 0 0 0 0 0 0 0 0 0 0 0 0 0 0 127 0" result="hardAlpha"/>
<feOffset dy="1.8557"/>
<feGaussianBlur stdDeviation="0.862946"/>
<feColorMatrix type="matrix" values="0 0 0 0 0.0509804 0 0 0 0 0.121569 0 0 0 0 0.396078 0 0 0 0.3 0"/>
<feBlend mode="multiply" in2="effect2_dropShadow_1_2023" result="effect3_dropShadow_1_2023"/>
<feColorMatrix in="SourceAlpha" type="matrix" values="0 0 0 0 0 0 0 0 0 0 0 0 0 0 0 0 0 0 127 0" result="hardAlpha"/>
<feOffset dy="2.72289"/>
<feGaussianBlur stdDeviation="2.7405"/>
<feColorMatrix type="matrix" values="0 0 0 0 0.0509804 0 0 0 0 0.121569 0 0 0 0 0.396078 0 0 0 0.3 0"/>
<feBlend mode="multiply" in2="effect3_dropShadow_1_2023" result="effect4_dropShadow_1_2023"/>
<feColorMatrix in="SourceAlpha" type="matrix" values="0 0 0 0 0 0 0 0 0 0 0 0 0 0 0 0 0 0 127 0" result="hardAlpha"/>
<feOffset dy="4.23693"/>
<feGaussianBlur stdDeviation="5.09502"/>
<feColorMatrix type="matrix" values="0 0 0 0 0.0509804 0 0 0 0 0.121569 0 0 0 0 0.396078 0 0 0 0.29 0"/>
<feBlend mode="overlay" in2="effect4_dropShadow_1_2023" result="effect5_dropShadow_1_2023"/>
<feColorMatrix in="SourceAlpha" type="matrix" values="0 0 0 0 0 0 0 0 0 0 0 0 0 0 0 0 0 0 127 0" result="hardAlpha"/>
<feOffset dy="11.2061"/>
<feGaussianBlur stdDeviation="8.96484"/>
<feColorMatrix type="matrix" values="0 0 0 0 0.0509804 0 0 0 0 0.121569 0 0 0 0 0.396078 0 0 0 0.45 0"/>
<feBlend mode="multiply" in2="effect5_dropShadow_1_2023" result="effect6_dropShadow_1_2023"/>
<feBlend mode="normal" in="SourceGraphic" in2="effect6_dropShadow_1_2023" result="shape"/>
</filter>
<filter id="filter1_dddddd_1_2023" x="145.928" y="82.6758" width="68.9795" height="112.001" filterUnits="userSpaceOnUse" color-interpolation-filters="sRGB">
<feFlood flood-opacity="0" result="BackgroundImageFix"/>
<feColorMatrix in="SourceAlpha" type="matrix" values="0 0 0 0 0 0 0 0 0 0 0 0 0 0 0 0 0 0 127 0" result="hardAlpha"/>
<feOffset dy="0.615013"/>
<feGaussianBlur stdDeviation="0.226553"/>
<feColorMatrix type="matrix" values="0 0 0 0 0.0509804 0 0 0 0 0.121569 0 0 0 0 0.396078 0 0 0 0.189957 0"/>
<feBlend mode="multiply" in2="BackgroundImageFix" result="effect1_dropShadow_1_2023"/>
<feColorMatrix in="SourceAlpha" type="matrix" values="0 0 0 0 0 0 0 0 0 0 0 0 0 0 0 0 0 0 127 0" result="hardAlpha"/>
<feOffset dy="1.20664"/>
<feGaussianBlur stdDeviation="0.503869"/>
<feColorMatrix type="matrix" values="0 0 0 0 0.0509804 0 0 0 0 0.121569 0 0 0 0 0.396078 0 0 0 0.368551 0"/>
<feBlend mode="multiply" in2="effect1_dropShadow_1_2023" result="effect2_dropShadow_1_2023"/>
<feColorMatrix in="SourceAlpha" type="matrix" values="0 0 0 0 0 0 0 0 0 0 0 0 0 0 0 0 0 0 127 0" result="hardAlpha"/>
<feOffset dy="1.8557"/>
<feGaussianBlur stdDeviation="0.862946"/>
<feColorMatrix type="matrix" values="0 0 0 0 0.0509804 0 0 0 0 0.121569 0 0 0 0 0.396078 0 0 0 0.3 0"/>
<feBlend mode="multiply" in2="effect2_dropShadow_1_2023" result="effect3_dropShadow_1_2023"/>
<feColorMatrix in="SourceAlpha" type="matrix" values="0 0 0 0 0 0 0 0 0 0 0 0 0 0 0 0 0 0 127 0" result="hardAlpha"/>
<feOffset dy="2.72289"/>
<feGaussianBlur stdDeviation="2.7405"/>
<feColorMatrix type="matrix" values="0 0 0 0 0.0509804 0 0 0 0 0.121569 0 0 0 0 0.396078 0 0 0 0.3 0"/>
<feBlend mode="multiply" in2="effect3_dropShadow_1_2023" result="effect4_dropShadow_1_2023"/>
<feColorMatrix in="SourceAlpha" type="matrix" values="0 0 0 0 0 0 0 0 0 0 0 0 0 0 0 0 0 0 127 0" result="hardAlpha"/>
<feOffset dy="4.23693"/>
<feGaussianBlur stdDeviation="5.09502"/>
<feColorMatrix type="matrix" values="0 0 0 0 0.0509804 0 0 0 0 0.121569 0 0 0 0 0.396078 0 0 0 0.29 0"/>
<feBlend mode="overlay" in2="effect4_dropShadow_1_2023" result="effect5_dropShadow_1_2023"/>
<feColorMatrix in="SourceAlpha" type="matrix" values="0 0 0 0 0 0 0 0 0 0 0 0 0 0 0 0 0 0 127 0" result="hardAlpha"/>
<feOffset dy="11.2061"/>
<feGaussianBlur stdDeviation="8.96484"/>
<feColorMatrix type="matrix" values="0 0 0 0 0.0509804 0 0 0 0 0.121569 0 0 0 0 0.396078 0 0 0 0.45 0"/>
<feBlend mode="multiply" in2="effect5_dropShadow_1_2023" result="effect6_dropShadow_1_2023"/>
<feBlend mode="normal" in="SourceGraphic" in2="effect6_dropShadow_1_2023" result="shape"/>
</filter>
<linearGradient id="paint0_linear_1_2023" x1="127.51" y1="24.9023" x2="127.51" y2="230.31" gradientUnits="userSpaceOnUse">
<stop stop-color="#A4C1FF"/>
<stop offset="1" stop-color="#0E78F9"/>
</linearGradient>
<linearGradient id="paint1_linear_1_2023" x1="108.076" y1="88.6523" x2="108.076" y2="166.099" gradientUnits="userSpaceOnUse">
<stop stop-color="white"/>
<stop offset="1" stop-color="#C5D4F7"/>
</linearGradient>
<linearGradient id="paint2_linear_1_2023" x1="108.076" y1="88.6523" x2="108.076" y2="166.099" gradientUnits="userSpaceOnUse">
<stop stop-color="white"/>
<stop offset="1" stop-color="#637ACA"/>
</linearGradient>
<linearGradient id="paint3_linear_1_2023" x1="180.417" y1="89.3994" x2="180.417" y2="165.541" gradientUnits="userSpaceOnUse">
<stop stop-color="white"/>
<stop offset="1" stop-color="#C5D4F7"/>
</linearGradient>
<linearGradient id="paint4_linear_1_2023" x1="180.417" y1="89.3994" x2="180.417" y2="165.541" gradientUnits="userSpaceOnUse">
<stop stop-color="white"/>
<stop offset="1" stop-color="#637ACA"/>
</linearGradient>
</defs>
</svg>
